%TF.GenerationSoftware,KiCad,Pcbnew,10.0.1*%
%TF.CreationDate,2026-07-14T13:13:07+03:00*%
%TF.ProjectId,line_electrodes,6c696e65-5f65-46c6-9563-74726f646573,rev?*%
%TF.SameCoordinates,Original*%
%TF.FileFunction,Copper,L1,Top*%
%TF.FilePolarity,Positive*%
%FSLAX46Y46*%
G04 Gerber Fmt 4.6, Leading zero omitted, Abs format (unit mm)*
G04 Created by KiCad (PCBNEW 10.0.1) date 2026-07-14 13:13:07*
%MOMM*%
%LPD*%
G01*
G04 APERTURE LIST*
G04 Aperture macros list*
%AMRoundRect*
0 Rectangle with rounded corners*
0 $1 Rounding radius*
0 $2 $3 $4 $5 $6 $7 $8 $9 X,Y pos of 4 corners*
0 Add a 4 corners polygon primitive as box body*
4,1,4,$2,$3,$4,$5,$6,$7,$8,$9,$2,$3,0*
0 Add four circle primitives for the rounded corners*
1,1,$1+$1,$2,$3*
1,1,$1+$1,$4,$5*
1,1,$1+$1,$6,$7*
1,1,$1+$1,$8,$9*
0 Add four rect primitives between the rounded corners*
20,1,$1+$1,$2,$3,$4,$5,0*
20,1,$1+$1,$4,$5,$6,$7,0*
20,1,$1+$1,$6,$7,$8,$9,0*
20,1,$1+$1,$8,$9,$2,$3,0*%
G04 Aperture macros list end*
%TA.AperFunction,SMDPad,CuDef*%
%ADD10RoundRect,0.150000X-0.150000X-0.700000X0.150000X-0.700000X0.150000X0.700000X-0.150000X0.700000X0*%
%TD*%
%TA.AperFunction,SMDPad,CuDef*%
%ADD11RoundRect,0.250000X-0.250000X-1.100000X0.250000X-1.100000X0.250000X1.100000X-0.250000X1.100000X0*%
%TD*%
%TA.AperFunction,SMDPad,CuDef*%
%ADD12RoundRect,0.150000X-0.350000X-4.850000X0.350000X-4.850000X0.350000X4.850000X-0.350000X4.850000X0*%
%TD*%
%TA.AperFunction,Conductor*%
%ADD13C,0.500000*%
%TD*%
G04 APERTURE END LIST*
D10*
%TO.P,J2,1,Pin_1_1*%
%TO.N,Net-(J1-Pin_1)*%
X19125000Y-49150000D03*
%TO.P,J2,2,Pin_2_2*%
%TO.N,Net-(J1-Pin_2)*%
X20375000Y-49150000D03*
%TO.P,J2,3,Pin_3_3*%
%TO.N,Net-(J1-Pin_3)*%
X21625000Y-49150000D03*
%TO.P,J2,4,Pin_4_4*%
%TO.N,Net-(J1-Pin_4)*%
X22875000Y-49150000D03*
%TO.P,J2,5,Pin_5_5*%
%TO.N,Net-(J1-Pin_5)*%
X24125000Y-49150000D03*
%TO.P,J2,6,Pin_6_6*%
%TO.N,Net-(J1-Pin_6)*%
X25375000Y-49150000D03*
%TO.P,J2,7,Pin_7_7*%
%TO.N,Net-(J1-Pin_7)*%
X26625000Y-49150000D03*
%TO.P,J2,8,Pin_8_8*%
%TO.N,Net-(J1-Pin_8)*%
X27875000Y-49150000D03*
%TO.P,J2,9,Pin_9_9*%
%TO.N,Net-(J1-Pin_9)*%
X29125000Y-49150000D03*
%TO.P,J2,10,Pin_10_10*%
%TO.N,Net-(J1-Pin_10)*%
X30375000Y-49150000D03*
%TO.P,J2,11,Pin_11_11*%
%TO.N,Net-(J1-Pin_11)*%
X31625000Y-49150000D03*
%TO.P,J2,12,Pin_12_12*%
%TO.N,Net-(J1-Pin_12)*%
X32875000Y-49150000D03*
D11*
%TO.P,J2,MP*%
%TO.N,N/C*%
X17275000Y-52350000D03*
X34725000Y-52350000D03*
%TD*%
D12*
%TO.P,J1,1,Pin_1_1*%
%TO.N,Net-(J1-Pin_1)*%
X15000000Y-20000000D03*
%TO.P,J1,2,Pin_2_2*%
%TO.N,Net-(J1-Pin_2)*%
X17000000Y-20000000D03*
%TO.P,J1,3,Pin_3_3*%
%TO.N,Net-(J1-Pin_3)*%
X19000000Y-20000000D03*
%TO.P,J1,4,Pin_4_4*%
%TO.N,Net-(J1-Pin_4)*%
X21000000Y-20000000D03*
%TO.P,J1,5,Pin_5_5*%
%TO.N,Net-(J1-Pin_5)*%
X23000000Y-20000000D03*
%TO.P,J1,6,Pin_6_6*%
%TO.N,Net-(J1-Pin_6)*%
X25000000Y-20000000D03*
%TO.P,J1,7,Pin_7_7*%
%TO.N,Net-(J1-Pin_7)*%
X27000000Y-20000000D03*
%TO.P,J1,8,Pin_8_8*%
%TO.N,Net-(J1-Pin_8)*%
X29000000Y-20000000D03*
%TO.P,J1,9,Pin_9_9*%
%TO.N,Net-(J1-Pin_9)*%
X31000000Y-20000000D03*
%TO.P,J1,10,Pin_10_10*%
%TO.N,Net-(J1-Pin_10)*%
X33000000Y-20000000D03*
%TO.P,J1,11,Pin_11_11*%
%TO.N,Net-(J1-Pin_11)*%
X35000000Y-20000000D03*
%TO.P,J1,12,Pin_12_12*%
%TO.N,Net-(J1-Pin_12)*%
X37000000Y-20000000D03*
%TD*%
%TO.N,Net-(J1-Pin_9)*%
D13*
X29125000Y-34875000D02*
X31000000Y-33000000D01*
X29125000Y-49150000D02*
X29125000Y-34875000D01*
X31000000Y-33000000D02*
X31000000Y-20000000D01*
%TO.N,Net-(J1-Pin_10)*%
X33000000Y-20000000D02*
X33000000Y-33000000D01*
X30375000Y-35625000D02*
X30375000Y-49150000D01*
X33000000Y-33000000D02*
X30375000Y-35625000D01*
%TO.N,Net-(J1-Pin_2)*%
X17000000Y-20000000D02*
X17000000Y-33000000D01*
X17000000Y-33000000D02*
X20375000Y-36375000D01*
X20375000Y-36375000D02*
X20375000Y-49150000D01*
%TO.N,Net-(J1-Pin_7)*%
X27000000Y-32750000D02*
X27000000Y-20000000D01*
X26625000Y-49150000D02*
X26625000Y-33125000D01*
X26625000Y-33125000D02*
X27000000Y-32750000D01*
%TO.N,Net-(J1-Pin_8)*%
X29000000Y-20000000D02*
X29000000Y-33000000D01*
X29000000Y-33000000D02*
X27875000Y-34125000D01*
X27875000Y-34125000D02*
X27875000Y-49150000D01*
%TO.N,Net-(J1-Pin_11)*%
X35000000Y-20000000D02*
X35000000Y-33000000D01*
X35000000Y-33000000D02*
X31625000Y-36375000D01*
X31625000Y-36375000D02*
X31625000Y-49150000D01*
%TO.N,Net-(J1-Pin_3)*%
X19000000Y-33000000D02*
X21625000Y-35625000D01*
X19000000Y-20000000D02*
X19000000Y-33000000D01*
X21625000Y-35625000D02*
X21625000Y-49150000D01*
%TO.N,Net-(J1-Pin_12)*%
X37000000Y-33000000D02*
X32875000Y-37125000D01*
X37000000Y-20000000D02*
X37000000Y-33000000D01*
X32875000Y-37125000D02*
X32875000Y-49150000D01*
%TO.N,Net-(J1-Pin_4)*%
X22875000Y-34875000D02*
X22875000Y-49150000D01*
X21000000Y-33000000D02*
X22875000Y-34875000D01*
X21000000Y-20000000D02*
X21000000Y-33000000D01*
%TO.N,Net-(J1-Pin_5)*%
X23000000Y-33000000D02*
X24125000Y-34125000D01*
X23000000Y-20000000D02*
X23000000Y-33000000D01*
X24125000Y-34125000D02*
X24125000Y-49150000D01*
%TO.N,Net-(J1-Pin_6)*%
X25375000Y-33125000D02*
X25000000Y-32750000D01*
X25375000Y-49150000D02*
X25375000Y-33125000D01*
X25000000Y-20000000D02*
X25000000Y-32750000D01*
%TO.N,Net-(J1-Pin_1)*%
X15000000Y-20000000D02*
X15000000Y-33500000D01*
X15000000Y-33500000D02*
X19125000Y-37625000D01*
X19125000Y-37625000D02*
X19125000Y-49150000D01*
%TD*%
M02*
