%TF.GenerationSoftware,KiCad,Pcbnew,10.0.1*%
%TF.CreationDate,2026-07-14T13:13:07+03:00*%
%TF.ProjectId,line_electrodes,6c696e65-5f65-46c6-9563-74726f646573,rev?*%
%TF.SameCoordinates,Original*%
%TF.FileFunction,Legend,Top*%
%TF.FilePolarity,Positive*%
%FSLAX46Y46*%
G04 Gerber Fmt 4.6, Leading zero omitted, Abs format (unit mm)*
G04 Created by KiCad (PCBNEW 10.0.1) date 2026-07-14 13:13:07*
%MOMM*%
%LPD*%
G01*
G04 APERTURE LIST*
%ADD10C,0.150000*%
%ADD11C,0.120000*%
G04 APERTURE END LIST*
D10*
X25666666Y-46554819D02*
X25666666Y-47269104D01*
X25666666Y-47269104D02*
X25619047Y-47411961D01*
X25619047Y-47411961D02*
X25523809Y-47507200D01*
X25523809Y-47507200D02*
X25380952Y-47554819D01*
X25380952Y-47554819D02*
X25285714Y-47554819D01*
X26095238Y-46650057D02*
X26142857Y-46602438D01*
X26142857Y-46602438D02*
X26238095Y-46554819D01*
X26238095Y-46554819D02*
X26476190Y-46554819D01*
X26476190Y-46554819D02*
X26571428Y-46602438D01*
X26571428Y-46602438D02*
X26619047Y-46650057D01*
X26619047Y-46650057D02*
X26666666Y-46745295D01*
X26666666Y-46745295D02*
X26666666Y-46840533D01*
X26666666Y-46840533D02*
X26619047Y-46983390D01*
X26619047Y-46983390D02*
X26047619Y-47554819D01*
X26047619Y-47554819D02*
X26666666Y-47554819D01*
X15666666Y-12454819D02*
X15666666Y-13169104D01*
X15666666Y-13169104D02*
X15619047Y-13311961D01*
X15619047Y-13311961D02*
X15523809Y-13407200D01*
X15523809Y-13407200D02*
X15380952Y-13454819D01*
X15380952Y-13454819D02*
X15285714Y-13454819D01*
X16666666Y-13454819D02*
X16095238Y-13454819D01*
X16380952Y-13454819D02*
X16380952Y-12454819D01*
X16380952Y-12454819D02*
X16285714Y-12597676D01*
X16285714Y-12597676D02*
X16190476Y-12692914D01*
X16190476Y-12692914D02*
X16095238Y-12740533D01*
%TO.C,J2*%
D11*
X16765000Y-49290000D02*
X18565000Y-49290000D01*
X16765000Y-50740000D02*
X16765000Y-49290000D01*
X18035000Y-53560000D02*
X33965000Y-53560000D01*
X18565000Y-49290000D02*
X18565000Y-48300000D01*
X35235000Y-49290000D02*
X33435000Y-49290000D01*
X35235000Y-50740000D02*
X35235000Y-49290000D01*
%TD*%
M02*
