%TF.GenerationSoftware,KiCad,Pcbnew,10.0.1*%
%TF.CreationDate,2026-07-14T20:19:48+03:00*%
%TF.ProjectId,circular_electrodes,63697263-756c-4617-925f-656c65637472,rev?*%
%TF.SameCoordinates,Original*%
%TF.FileFunction,Copper,L2,Bot*%
%TF.FilePolarity,Positive*%
%FSLAX46Y46*%
G04 Gerber Fmt 4.6, Leading zero omitted, Abs format (unit mm)*
G04 Created by KiCad (PCBNEW 10.0.1) date 2026-07-14 20:19:48*
%MOMM*%
%LPD*%
G01*
G04 APERTURE LIST*
G04 Aperture macros list*
%AMRoundRect*
0 Rectangle with rounded corners*
0 $1 Rounding radius*
0 $2 $3 $4 $5 $6 $7 $8 $9 X,Y pos of 4 corners*
0 Add a 4 corners polygon primitive as box body*
4,1,4,$2,$3,$4,$5,$6,$7,$8,$9,$2,$3,0*
0 Add four circle primitives for the rounded corners*
1,1,$1+$1,$2,$3*
1,1,$1+$1,$4,$5*
1,1,$1+$1,$6,$7*
1,1,$1+$1,$8,$9*
0 Add four rect primitives between the rounded corners*
20,1,$1+$1,$2,$3,$4,$5,0*
20,1,$1+$1,$4,$5,$6,$7,0*
20,1,$1+$1,$6,$7,$8,$9,0*
20,1,$1+$1,$8,$9,$2,$3,0*%
G04 Aperture macros list end*
%TA.AperFunction,SMDPad,CuDef*%
%ADD10RoundRect,0.150000X0.150000X0.700000X-0.150000X0.700000X-0.150000X-0.700000X0.150000X-0.700000X0*%
%TD*%
%TA.AperFunction,SMDPad,CuDef*%
%ADD11RoundRect,0.250000X0.250000X1.100000X-0.250000X1.100000X-0.250000X-1.100000X0.250000X-1.100000X0*%
%TD*%
%TA.AperFunction,ViaPad*%
%ADD12C,0.600000*%
%TD*%
%TA.AperFunction,Conductor*%
%ADD13C,0.500000*%
%TD*%
G04 APERTURE END LIST*
D10*
%TO.P,J2,1,Pin_1_1*%
%TO.N,Net-(J1-Pin_1)*%
X66875000Y-169150000D03*
%TO.P,J2,2,Pin_2_2*%
%TO.N,Net-(J1-Pin_2)*%
X65625000Y-169150000D03*
%TO.P,J2,3,Pin_3_3*%
%TO.N,Net-(J1-Pin_3)*%
X64375000Y-169150000D03*
%TO.P,J2,4,Pin_4_4*%
%TO.N,Net-(J1-Pin_4)*%
X63125000Y-169150000D03*
%TO.P,J2,5,Pin_5_5*%
%TO.N,Net-(J1-Pin_5)*%
X61875000Y-169150000D03*
%TO.P,J2,6,Pin_6_6*%
%TO.N,Net-(J1-Pin_6)*%
X60625000Y-169150000D03*
%TO.P,J2,7,Pin_7_7*%
%TO.N,Net-(J1-Pin_7)*%
X59375000Y-169150000D03*
%TO.P,J2,8,Pin_8_8*%
%TO.N,Net-(J1-Pin_8)*%
X58125000Y-169150000D03*
%TO.P,J2,9,Pin_9_9*%
%TO.N,Net-(J1-Pin_9)*%
X56875000Y-169150000D03*
%TO.P,J2,10,Pin_10_10*%
%TO.N,Net-(J1-Pin_10)*%
X55625000Y-169150000D03*
%TO.P,J2,11,Pin_11_11*%
%TO.N,Net-(J1-Pin_11)*%
X54375000Y-169150000D03*
%TO.P,J2,12,Pin_12_12*%
%TO.N,Net-(J1-Pin_12)*%
X53125000Y-169150000D03*
D11*
%TO.P,J2,MP*%
%TO.N,N/C*%
X68725000Y-172350000D03*
X51275000Y-172350000D03*
%TD*%
D12*
%TO.N,Net-(J1-Pin_1)*%
X60000000Y-110000000D03*
%TO.N,Net-(J1-Pin_2)*%
X57000000Y-110000000D03*
%TO.N,Net-(J1-Pin_3)*%
X54000000Y-110000000D03*
%TO.N,Net-(J1-Pin_4)*%
X51000000Y-110000000D03*
%TO.N,Net-(J1-Pin_5)*%
X48000000Y-110000000D03*
%TO.N,Net-(J1-Pin_6)*%
X45000000Y-110000000D03*
%TO.N,Net-(J1-Pin_7)*%
X42000000Y-110000000D03*
%TO.N,Net-(J1-Pin_8)*%
X39000000Y-110000000D03*
%TO.N,Net-(J1-Pin_9)*%
X36000000Y-110000000D03*
%TO.N,Net-(J1-Pin_10)*%
X33000000Y-110000000D03*
%TO.N,Net-(J1-Pin_11)*%
X30000000Y-110000000D03*
%TO.N,Net-(J1-Pin_12)*%
X27000000Y-110000000D03*
%TD*%
%TO.N,Net-(J1-Pin_1)*%
D13*
X60000000Y-110000000D02*
X60000000Y-131000000D01*
X60000000Y-131000000D02*
X66875000Y-137875000D01*
X66875000Y-137875000D02*
X66875000Y-169150000D01*
%TO.N,Net-(J1-Pin_2)*%
X57000000Y-131000000D02*
X65625000Y-139625000D01*
X57000000Y-110000000D02*
X57000000Y-131000000D01*
X65625000Y-139625000D02*
X65625000Y-169150000D01*
%TO.N,Net-(J1-Pin_3)*%
X54000000Y-110000000D02*
X54000000Y-131500000D01*
X54000000Y-131500000D02*
X64375000Y-141875000D01*
X64375000Y-141875000D02*
X64375000Y-169150000D01*
%TO.N,Net-(J1-Pin_4)*%
X51000000Y-110000000D02*
X51000000Y-131500000D01*
X51000000Y-131500000D02*
X63125000Y-143625000D01*
X63125000Y-143625000D02*
X63125000Y-169150000D01*
%TO.N,Net-(J1-Pin_5)*%
X61875000Y-145375000D02*
X61875000Y-169150000D01*
X48000000Y-110000000D02*
X48000000Y-131500000D01*
X48000000Y-131500000D02*
X61875000Y-145375000D01*
%TO.N,Net-(J1-Pin_6)*%
X60625000Y-147125000D02*
X60625000Y-169150000D01*
X45000000Y-131500000D02*
X60625000Y-147125000D01*
X45000000Y-110000000D02*
X45000000Y-131500000D01*
%TO.N,Net-(J1-Pin_7)*%
X59375000Y-148875000D02*
X59375000Y-169150000D01*
X42000000Y-131500000D02*
X59375000Y-148875000D01*
X42000000Y-110000000D02*
X42000000Y-131500000D01*
%TO.N,Net-(J1-Pin_8)*%
X39000000Y-132000000D02*
X58125000Y-151125000D01*
X58125000Y-151125000D02*
X58125000Y-169150000D01*
X39000000Y-110000000D02*
X39000000Y-132000000D01*
%TO.N,Net-(J1-Pin_9)*%
X56875000Y-169150000D02*
X56875000Y-152875000D01*
X56875000Y-152875000D02*
X36000000Y-132000000D01*
X36000000Y-132000000D02*
X36000000Y-110000000D01*
%TO.N,Net-(J1-Pin_10)*%
X33000000Y-131500000D02*
X33000000Y-110000000D01*
X55625000Y-169150000D02*
X55625000Y-154125000D01*
X55625000Y-154125000D02*
X33000000Y-131500000D01*
%TO.N,Net-(J1-Pin_11)*%
X54375000Y-155375000D02*
X54375000Y-169150000D01*
X30000000Y-131000000D02*
X54375000Y-155375000D01*
X30000000Y-110000000D02*
X30000000Y-131000000D01*
%TO.N,Net-(J1-Pin_12)*%
X27000000Y-110000000D02*
X27000000Y-131000000D01*
X27000000Y-131000000D02*
X53125000Y-157125000D01*
X53125000Y-157125000D02*
X53125000Y-169150000D01*
%TD*%
M02*
